<?xml version="1.0" standalone="no"?>
<!DOCTYPE svg PUBLIC "-//W3C//DTD SVG 20010904//EN"
 "http://www.w3.org/TR/2001/REC-SVG-20010904/DTD/svg10.dtd">
<svg version="1.0" xmlns="http://www.w3.org/2000/svg"
 width="1300.000000pt" height="1389.000000pt" viewBox="0 0 1300.000000 1389.000000"
 preserveAspectRatio="xMidYMid meet">

<g transform="translate(0.000000,1389.000000) scale(0.100000,-0.100000)"
fill="#000000" stroke="none">
<path d="M3281 13424 c0 -11 3 -14 6 -6 3 7 2 16 -1 19 -3 4 -6 -2 -5 -13z"/>
<path d="M3284 13200 c0 -63 1 -89 3 -57 2 31 2 83 0 115 -2 31 -3 5 -3 -58z"/>
<path d="M6533 13190 c0 -47 2 -66 4 -42 2 23 2 61 0 85 -2 23 -4 4 -4 -43z"/>
<path d="M3281 12055 c-2 -566 -5 -1039 -6 -1050 -1 -11 -2 -91 -3 -177 l-2
-158 -237 -2 -238 -2 235 -6 235 -5 0 -157 c-1 -412 -8 -821 -14 -798 -13 47
-21 -442 -21 -1362 l0 -918 -212 -3 -213 -2 211 -3 212 -2 6 -462 c4 -261 1
-708 -5 -1023 -6 -308 -13 -829 -15 -1159 l-4 -598 -195 4 c-107 2 -195 0
-195 -4 0 -4 87 -8 194 -8 l193 0 8 -872 c10 -1235 12 -1424 21 -1683 17 -490
23 -119 18 1015 -3 641 -2 1249 1 1352 l8 187 466 -5 c288 -4 479 -10 501 -17
24 -7 388 -12 1133 -14 l1097 -4 1 -457 c1 -251 5 -650 8 -887 5 -371 8 -430
21 -433 13 -2 15 95 12 835 -2 460 -1 861 3 890 l6 53 972 -2 c535 -1 941 -4
902 -8 -38 -4 243 -7 626 -8 l695 -2 13 -1257 c14 -1333 24 -1740 31 -1223 2
157 2 779 0 1383 l-3 1097 519 1 c978 2 1917 14 2154 29 111 7 109 7 -95 11
-115 2 -741 4 -1390 4 l-1180 0 3 250 c2 159 -1 255 -7 265 -7 10 -11 11 -11
3 0 -7 -7 -10 -15 -7 -13 5 -15 -29 -17 -250 l-3 -257 -980 2 c-1939 4 -2205
5 -2210 11 -3 3 -7 131 -8 283 -2 257 -3 278 -20 281 -9 1 -15 -2 -12 -6 3 -5
1 -11 -5 -15 -6 -4 -10 -103 -10 -274 l0 -267 -1582 3 c-871 2 -1591 5 -1601
6 -17 2 -18 45 -17 872 1 479 3 1118 6 1420 2 303 4 639 4 747 l0 197 93 4 92
3 -90 2 -91 2 3 1128 c2 620 6 1348 9 1617 l6 490 432 -3 c237 -1 462 -7 499
-13 137 -19 752 -31 1512 -27 l780 3 -3 -200 c-2 -110 1 -238 5 -285 6 -69 9
-30 13 200 l5 285 965 1 c531 0 929 -2 885 -5 -44 -4 249 -8 650 -11 l730 -5
-4 -445 c-1 -245 -5 -449 -8 -453 -19 -31 -31 -777 -25 -1550 l5 -758 -91 7
c-82 6 -92 5 -92 -10 0 -21 -24 -21 -45 0 -12 13 -19 14 -28 5 -14 -14 -61
-15 -52 -1 4 7 -300 11 -902 12 -1437 4 -1483 3 -1483 -4 0 -5 -18 -8 -40 -8
-22 0 -40 5 -40 10 0 15 -29 12 -46 -5 -22 -22 -110 -19 831 -24 391 -3 679
-7 640 -11 -38 -4 179 -7 483 -8 384 -1 552 1 552 9 0 13 42 8 52 -6 5 -7 13
-6 25 1 10 6 27 8 38 3 11 -4 59 -8 108 -8 l87 -1 -2 -957 c-1 -527 -4 -933
-8 -903 -4 30 -7 -67 -8 -217 -2 -250 -1 -273 16 -282 9 -6 11 -11 5 -11 -7 0
-13 -5 -13 -11 0 -5 5 -7 10 -4 6 3 10 2 10 -4 0 -5 -6 -12 -12 -14 -10 -4
-10 -6 0 -6 9 -1 12 -33 12 -125 0 -69 3 -127 8 -129 4 -3 7 63 7 146 0 84 2
684 4 1335 l5 1182 618 0 c772 0 2018 19 2038 31 21 12 -136 13 -1490 14
l-1165 0 2 185 c1 102 5 823 8 1603 l7 1417 649 0 c708 0 1892 17 2053 29 140
11 -119 14 -1549 15 l-1150 1 -5 215 -5 215 -5 -213 -5 -214 -1310 3 c-720 2
-1447 3 -1615 4 l-305 0 -1 195 c0 107 -2 200 -4 205 -2 6 -7 -82 -10 -195
l-5 -205 -25 3 c-14 1 -739 5 -1612 9 l-1588 6 -3 1206 -2 1206 -4 -1030z"/>
<path d="M6534 12940 c0 -52 1 -74 3 -47 2 26 2 68 0 95 -2 26 -3 4 -3 -48z"/>
<path d="M6533 12780 c0 -30 2 -43 4 -27 2 15 2 39 0 55 -2 15 -4 2 -4 -28z"/>
<path d="M9785 12255 c0 -308 1 -435 2 -283 2 152 2 404 0 560 -1 156 -2 31
-2 -277z"/>
<path d="M6535 12075 c0 -236 1 -332 2 -212 2 120 2 314 0 430 -1 117 -2 19
-2 -218z"/>
<path d="M6532 11110 c0 -14 2 -19 5 -12 2 6 2 18 0 25 -3 6 -5 1 -5 -13z"/>
<path d="M1388 10673 c139 -2 364 -2 500 0 136 1 22 2 -253 2 -275 0 -386 -1
-247 -2z"/>
<path d="M6518 9980 c-2 -22 0 -40 4 -40 5 0 8 18 8 40 0 22 -2 40 -4 40 -2 0
-6 -18 -8 -40z"/>
<path d="M6510 9789 c0 -60 -4 -108 -8 -105 -16 10 -22 -361 -22 -1331 l0
-963 -40 0 c-22 0 -40 5 -40 10 0 7 -6 7 -20 0 -38 -20 -21 -30 40 -23 l60 6
-1 -969 c-1 -533 -5 -953 -9 -934 -3 19 -8 -97 -9 -259 -1 -259 0 -293 14
-287 9 3 15 0 15 -9 0 -7 4 -17 10 -20 10 -6 16 786 14 1922 l0 552 25 4 c25
4 25 4 -3 6 l-28 1 6 128 c3 70 9 634 12 1255 5 824 3 1127 -5 1127 -7 0 -11
-36 -11 -111z"/>
<path d="M1218 7423 c172 -2 451 -2 620 0 169 1 28 2 -313 2 -341 0 -479 -1
-307 -2z"/>
<path d="M3493 7413 c9 -2 23 -2 30 0 6 3 -1 5 -18 5 -16 0 -22 -2 -12 -5z"/>
<path d="M3546 7410 c5 -5 147 -11 339 -13 182 -2 393 -9 470 -16 90 -7 405
-12 875 -12 730 -1 967 2 963 15 -2 3 -3 11 -3 16 0 6 -7 10 -15 10 -8 0 -15
-4 -15 -10 0 -5 -18 -10 -40 -10 -23 0 -40 5 -40 11 0 8 -4 8 -14 0 -22 -19
-86 -24 -86 -8 0 11 -27 16 -107 20 -174 11 -2338 8 -2327 -3z"/>
<path d="M6263 7396 c-15 -17 4 -27 36 -19 17 4 18 7 6 19 -17 17 -27 17 -42
0z"/>
<path d="M6692 7393 c-15 -15 18 -28 48 -18 15 5 17 9 8 18 -6 7 -19 13 -28
13 -9 0 -22 -6 -28 -13z"/>
<path d="M6817 7396 c-7 -19 11 -32 24 -19 6 6 5 14 -4 22 -12 9 -16 8 -20 -3z"/>
<path d="M6590 7385 c0 -10 7 -15 18 -13 21 4 19 22 -2 26 -10 2 -16 -3 -16
-13z"/>
<path d="M6778 7383 c7 -3 16 -2 19 1 4 3 -2 6 -13 5 -11 0 -14 -3 -6 -6z"/>
<path d="M6470 4888 c0 -7 -3 -23 -6 -35 -5 -17 -2 -23 10 -23 9 0 16 -5 16
-11 0 -5 -4 -7 -10 -4 -6 4 -10 -10 -10 -34 0 -33 3 -41 19 -41 16 0 18 7 16
45 -2 24 -6 49 -9 54 -3 5 -2 11 3 13 11 4 -5 48 -19 48 -5 0 -10 -6 -10 -12z"/>
<path d="M9723 4720 c0 -30 2 -43 4 -27 2 15 2 39 0 55 -2 15 -4 2 -4 -28z"/>
<path d="M718 4173 c18 -2 45 -2 60 0 15 2 0 4 -33 4 -33 0 -45 -2 -27 -4z"/>
<path d="M1243 4173 c186 -2 488 -2 670 0 183 1 31 2 -338 2 -368 0 -518 -1
-332 -2z"/>
<path d="M2378 4173 c7 -3 16 -2 19 1 4 3 -2 6 -13 5 -11 0 -14 -3 -6 -6z"/>
<path d="M6475 2288 c-4 -15 -2 -35 3 -45 9 -16 11 -15 17 9 4 15 2 35 -3 45
-9 16 -11 15 -17 -9z"/>
<path d="M6478 2196 c-11 -26 -5 -56 12 -56 5 0 10 18 10 40 0 46 -6 50 -22
16z"/>
<path d="M6482 2113 c-8 -14 -8 -125 -1 -374 5 -195 11 -361 12 -369 2 -8 7
152 11 357 8 368 4 435 -22 386z"/>
<path d="M3252 1340 c0 -19 2 -27 5 -17 2 9 2 25 0 35 -3 9 -5 1 -5 -18z"/>
<path d="M9741 1314 c0 -11 3 -14 6 -6 3 7 2 16 -1 19 -3 4 -6 -2 -5 -13z"/>
<path d="M0 445 l0 -445 6500 0 6500 0 0 445 0 445 -6500 0 -6500 0 0 -445z
m780 54 l0 -200 -32 3 -33 3 -3 185 c-1 101 0 190 2 197 3 7 19 13 36 13 l30
0 0 -201z m-115 106 c24 -23 25 -30 25 -149 0 -68 3 -131 6 -140 5 -13 -1 -16
-30 -16 -27 0 -36 4 -36 17 0 15 -2 14 -20 -2 -27 -24 -70 -22 -92 5 -40 49
-11 130 61 170 46 27 55 41 37 66 -15 20 -36 11 -36 -17 0 -15 -7 -19 -35 -19
-32 0 -35 2 -35 30 0 46 39 80 90 80 30 0 47 -6 65 -25z m273 19 c41 -11 52
-51 52 -194 l0 -130 -29 0 c-17 0 -32 4 -36 9 -3 6 -16 4 -31 -4 -49 -25 -94
8 -94 69 0 50 17 76 76 117 34 23 44 36 42 52 -4 29 -30 28 -43 0 -7 -17 -18
-23 -43 -23 -33 0 -33 1 -27 33 12 60 66 89 133 71z m234 -13 c12 -19 12 -19
36 0 30 23 55 24 76 3 13 -13 16 -42 16 -165 l0 -150 -32 3 -32 3 3 115 c2 91
-1 119 -13 135 -27 34 -36 0 -36 -132 l0 -123 -35 0 -34 0 -3 133 c-3 109 -6
132 -18 132 -12 0 -15 -23 -18 -132 l-3 -133 -34 0 -35 0 0 160 0 160 35 0
c21 0 35 -5 35 -12 0 -8 6 -6 17 5 23 23 60 22 75 -2z m218 -116 c5 -122 6
-130 25 -130 19 0 20 8 23 128 l3 127 34 0 35 0 0 -185 c0 -184 0 -186 -25
-210 -20 -21 -34 -25 -85 -25 l-60 0 0 30 c0 27 3 30 34 30 53 0 66 9 66 43 0
28 -1 29 -13 13 -17 -23 -63 -24 -85 -2 -14 14 -18 42 -20 152 -2 75 -1 141 1
148 3 6 18 12 33 11 l29 0 5 -130z m9805 85 c0 -27 -4 -50 -10 -50 -5 0 -10
23 -10 50 0 28 5 50 10 50 6 0 10 -22 10 -50z m470 0 c0 -27 -4 -50 -10 -50
-5 0 -10 23 -10 50 0 28 5 50 10 50 6 0 10 -22 10 -50z m93 38 c7 -7 12 -24
12 -38 0 -34 -17 -50 -52 -50 -27 0 -28 2 -28 50 0 48 1 50 28 50 15 0 33 -5
40 -12z m160 -14 c2 -11 -4 -27 -13 -34 -21 -17 -19 -28 8 -33 16 -3 13 -5
-10 -6 -38 -1 -41 8 -13 34 27 25 27 59 0 52 -11 -3 -17 -1 -14 4 10 17 39 5
42 -17z m52 6 c0 -30 47 -28 53 3 2 12 4 -3 4 -33 0 -30 -2 -43 -4 -27 -3 21
-10 27 -29 27 -19 0 -24 -5 -24 -25 0 -14 -4 -25 -10 -25 -5 0 -10 23 -10 50
0 28 5 50 10 50 6 0 10 -9 10 -20z m122 -17 l23 -38 6 40 c6 39 6 39 8 -12 0
-29 -3 -53 -7 -53 -5 0 -17 16 -28 35 -10 19 -21 35 -24 35 -4 0 -5 -16 -4
-35 2 -19 -1 -35 -6 -35 -6 0 -10 23 -10 50 0 28 4 50 9 50 5 0 20 -17 33 -37z
m112 20 c20 26 29 20 11 -7 -15 -23 -15 -27 0 -50 10 -14 13 -26 7 -26 -6 0
-14 10 -18 22 l-7 22 -17 -22 c-25 -30 -34 -28 -13 4 13 21 14 30 5 45 -17 27
-14 38 4 14 14 -19 16 -19 28 -2z m104 5 c7 -7 12 -24 12 -38 0 -34 -17 -50
-52 -50 -27 0 -28 2 -28 50 0 48 1 50 28 50 15 0 33 -5 40 -12z m81 -10 c-2
-13 0 -29 5 -36 11 -18 -12 -42 -38 -41 -20 1 -20 1 2 7 13 4 23 10 23 15 -1
4 -1 12 -1 17 0 6 -8 11 -17 11 -17 1 -17 2 0 6 9 2 17 11 17 20 0 10 -6 14
-20 10 -11 -3 -20 -1 -20 4 0 5 12 9 26 9 21 0 25 -4 23 -22z m51 0 c0 -21 0
-21 27 3 20 17 23 18 10 3 -21 -25 -21 -38 -2 -54 8 -7 15 -18 15 -24 -1 -6
-12 3 -25 19 l-25 30 0 -27 c0 -16 -4 -28 -10 -28 -5 0 -10 23 -10 50 0 28 5
50 10 50 6 0 10 -10 10 -22z m-1113 -43 l1 -40 -6 35 c-4 22 -13 35 -22 35 -9
0 -17 -13 -21 -35 l-6 -35 -2 38 c-1 45 -27 52 -37 10 -10 -48 -12 -49 -13 -7
l-1 41 53 -1 52 -1 2 -40z m81 4 c3 -34 1 -36 -25 -35 -35 1 -46 35 -14 43 26
7 27 20 4 27 -11 3 -7 4 7 3 21 -2 25 -8 28 -38z m80 -19 c-3 -50 -5 -55 -28
-57 -25 -3 -25 -3 -2 7 12 5 22 15 22 23 0 8 -10 13 -22 13 -17 -1 -24 5 -26
22 -5 37 5 52 33 50 25 -2 26 -5 23 -58z m90 38 c3 -14 -3 -18 -23 -18 -33 0
-29 -21 6 -32 22 -6 21 -7 -6 -5 -23 2 -31 7 -33 25 -2 13 -1 30 2 38 8 21 50
14 54 -8z m232 12 c0 -5 -4 -10 -10 -10 -5 0 -10 5 -10 10 0 6 5 10 10 10 6 0
10 -4 10 -10z m0 -60 c0 -5 -4 -10 -10 -10 -5 0 -10 5 -10 10 0 6 5 10 10 10
6 0 10 -4 10 -10z m-50 -190 c0 -47 -3 -60 -15 -60 -12 0 -15 13 -15 60 0 47
3 60 15 60 12 0 15 -13 15 -60z m-580 10 c0 -11 5 -20 10 -20 6 0 10 9 10 21
0 29 32 21 41 -11 l6 -25 8 28 c7 28 25 38 25 13 0 -27 -22 -76 -35 -76 -7 0
-16 15 -20 33 l-8 32 -6 -30 c-9 -44 -33 -37 -47 13 -11 35 -11 42 2 42 8 0
14 -9 14 -20z m140 0 c0 -11 5 -20 10 -20 6 0 10 9 10 21 0 29 32 21 41 -11
l6 -25 8 28 c7 28 25 38 25 13 0 -27 -22 -76 -35 -76 -7 0 -16 15 -20 33 l-8
32 -6 -30 c-10 -48 -36 -43 -48 10 -8 36 -8 45 3 45 8 0 14 -9 14 -20z m140 0
c0 -11 5 -20 10 -20 6 0 10 9 10 21 0 29 32 21 41 -11 l6 -25 8 28 c7 28 25
38 25 13 0 -27 -22 -76 -35 -76 -7 0 -16 15 -20 33 l-8 32 -6 -30 c-9 -44 -33
-37 -47 13 -11 35 -11 42 2 42 8 0 14 -9 14 -20z m240 -10 c10 -42 2 -56 -33
-55 -27 0 -32 4 -32 25 0 17 7 26 25 31 24 7 24 7 3 8 -13 1 -23 6 -23 12 0 6
12 9 27 7 19 -2 29 -10 33 -28z m148 -15 c3 -40 2 -41 -30 -40 -28 0 -33 4
-33 25 0 17 7 26 25 31 24 7 25 7 2 8 -14 1 -20 5 -17 12 4 5 17 9 28 7 18 -2
23 -11 25 -43z m157 35 c2 -4 6 -24 9 -44 3 -27 1 -36 -10 -36 -9 0 -14 11
-14 35 0 24 -5 35 -15 35 -10 0 -15 -11 -15 -35 0 -19 -4 -35 -10 -35 -5 0
-10 16 -10 35 0 24 -5 35 -15 35 -10 0 -15 -11 -15 -35 0 -24 -5 -35 -15 -35
-11 0 -15 12 -15 44 l0 43 60 0 c33 0 63 -3 65 -7z m60 -17 l8 -28 10 28 c6
15 17 27 25 27 10 0 12 -6 7 -17 -4 -10 -14 -37 -22 -61 -15 -42 -36 -62 -51
-48 -3 4 0 11 8 16 12 8 12 16 -2 59 -13 40 -13 51 -3 51 7 0 16 -12 20 -27z
m175 18 c0 -5 -9 -11 -20 -14 -11 -3 -20 -13 -20 -22 0 -9 9 -19 20 -22 25 -7
26 -23 2 -23 -24 0 -42 19 -42 45 0 12 5 26 12 33 14 14 48 16 48 3z m90 -5
c28 -35 -11 -93 -47 -70 -36 22 -23 84 17 84 10 0 23 -7 30 -14z m161 -14 c10
-27 4 -62 -12 -62 -5 0 -9 16 -9 35 0 24 -5 35 -15 35 -10 0 -15 -11 -15 -35
0 -19 -4 -35 -10 -35 -5 0 -10 16 -10 35 0 24 -5 35 -15 35 -10 0 -15 -11 -15
-35 0 -24 -5 -35 -15 -35 -11 0 -15 12 -15 44 l0 43 61 0 c55 0 61 -2 70 -25z
m-890 -55 c-13 -13 -26 -3 -16 12 3 6 11 8 17 5 6 -4 6 -10 -1 -17z m550 0
c-13 -13 -26 -3 -16 12 3 6 11 8 17 5 6 -4 6 -10 -1 -17z"/>
<path d="M597 435 c-30 -28 -36 -62 -12 -71 24 -10 42 13 43 56 1 22 1 40 -1
40 -1 0 -15 -11 -30 -25z"/>
<path d="M893 438 c-30 -32 -31 -78 -3 -78 25 0 32 17 28 65 l-3 37 -22 -24z"/>
<path d="M11710 580 c0 -33 3 -41 16 -38 26 5 41 35 28 56 -6 9 -19 18 -28 20
-13 3 -16 -5 -16 -38z"/>
<path d="M12260 580 c0 -33 3 -41 16 -38 26 5 41 35 28 56 -6 9 -19 18 -28 20
-13 3 -16 -5 -16 -38z"/>
<path d="M11360 555 c0 -8 7 -15 15 -15 8 0 15 7 15 15 0 8 -7 15 -15 15 -8 0
-15 -7 -15 -15z"/>
<path d="M11444 586 c-8 -22 3 -49 19 -43 6 2 12 14 12 27 0 27 -22 39 -31 16z"/>
<path d="M11535 590 c-3 -5 3 -10 15 -10 12 0 18 5 15 10 -3 6 -10 10 -15 10
-5 0 -12 -4 -15 -10z"/>
<path d="M11657 333 c-12 -11 -8 -23 8 -23 8 0 15 7 15 15 0 16 -12 20 -23 8z"/>
<path d="M11807 333 c-12 -11 -8 -23 8 -23 8 0 15 7 15 15 0 16 -12 20 -23 8z"/>
<path d="M12283 344 c-8 -21 13 -42 28 -27 13 13 5 43 -11 43 -6 0 -13 -7 -17
-16z"/>
</g>
</svg>
